<svg enable-background="new 0 0 501.551 501.551" viewBox="0 0 501.551 501.551" xmlns="http://www.w3.org/2000/svg"><path d="m386.612 0h-365.714c-11.494 0-20.898 9.404-20.898 20.898v459.755c0 11.494 9.404 20.898 20.898 20.898h459.755c11.494 0 20.898-9.404 20.898-20.898v-365.714z" fill="#f2f2f2"/><path d="m386.612 94.041c0 11.494 9.404 20.898 20.898 20.898h94.041l-114.939-114.939z" fill="#cdd6e0"/><ellipse cx="99.362" cy="87.806" fill="#f8b64c" rx="11.494" ry="5.225" transform="matrix(-.1961 -.9806 .9806 -.1961 32.7455 202.4581)"/><ellipse cx="175.305" cy="87.761" fill="#f8b64c" rx="5.225" ry="11.494" transform="matrix(-.9806 -.1961 .1961 -.9806 329.9973 208.1942)"/><path d="m233.012 220.473h-191.216s3.135-39.706 15.673-57.469c0 0 0 0 1.045-1.045 7.314-3.135 38.661-14.629 53.29-26.122l1.045-7.314s6.269 12.539 18.808 13.584h4.18 4.18c13.584-2.09 18.808-13.584 18.808-13.584l1.045 7.314c14.629 11.494 45.976 22.988 53.29 26.122 1.045 0 1.045 1.045 1.045 1.045 15.673 17.763 18.807 57.469 18.807 57.469z" fill="#cdd6e0"/><path d="m160.914 129.567s-6.269 12.539-18.808 13.584c-1.045 0-3.135 0-4.18 0s-3.135 0-4.18 0c-13.584-2.09-18.808-13.584-18.808-13.584s0-2.09 0-5.224c0-1.045 0-3.135 0-4.18 11.494 13.584 22.988 15.673 22.988 15.673s12.539-2.09 22.988-15.673v4.18z" fill="#f8b64c"/><path d="m176.588 76.278c0 2.09-1.045 4.18-1.045 4.18-7.314 51.2-38.661 56.424-38.661 56.424s-32.392-5.224-38.661-56.424c0 0 0-1.045-1.045-4.18-2.09-12.539-3.135-52.245 39.706-51.2 42.84 0 41.796 38.661 39.706 51.2z" fill="#ffd15c"/><path d="m168.229 141.061-14.629 28.212-8.359-13.583 2.09-2.09 7.314 10.449 11.494-24.033z" fill="#acb3ba"/><path d="m105.535 141.061 14.628 28.212 9.404-13.583-2.089-2.09-7.315 10.449-12.539-24.033z" fill="#acb3ba"/><path d="m176.588 76.278-1.045 2.09s-2.09-20.898-11.494-34.482c0 0-6.269 8.359-27.167 8.359s-27.167-8.359-27.167-8.359c-8.359 13.584-10.449 34.482-10.449 34.482l-2.09-2.09c-2.09-12.539-3.135-52.245 39.706-51.2 42.84 0 41.796 38.661 39.706 51.2z" fill="#334a5e"/><path d="m141.061 159.869 5.224 50.155-9.404 9.404-9.404-9.404 5.224-50.155-6.269-7.314 5.224-9.404h4.18 4.18l5.224 9.404z" fill="#fff"/><path d="m280.033 195.396h182.857v24.033h-182.857z" fill="#ff7058"/><path d="m41.796 275.853h421.094v24.033h-421.094z" fill="#cdd6e0"/><path d="m41.796 355.265h420.049v24.033h-420.049z" fill="#cdd6e0"/><path d="m41.796 434.678h271.673v24.033h-271.673z" fill="#4cdbc4"/></svg>